<?xml version="1.0" encoding="UTF-8" standalone="no"?>
<!DOCTYPE svg PUBLIC "-//W3C//DTD SVG 1.1//EN" "http://www.w3.org/Graphics/SVG/1.1/DTD/svg11.dtd">

<svg width="100%" height="100%" viewBox="0 0 945 945" version="1.1" xmlns="http://www.w3.org/2000/svg" xmlns:xlink="http://www.w3.org/1999/xlink" xml:space="preserve" xmlns:serif="http://www.serif.com/" style="fill-rule:evenodd;clip-rule:evenodd;stroke-linejoin:round;stroke-miterlimit:2;">

    <style>
        #background {
            fill: #020222;
        }        
        #initials {
            fill: #d377b3;
        }        
    </style>

<g id="background"><rect x="0" y="0" width="944.882" height="944.882"/></g>

<g id="initials" transform="matrix(1.15552,0.036532,-0.0358693,1.13456,101.475,234.304)">

    <g transform="matrix(0.996394,0,0,1.00143,-3.86259e-15,2.77261e-15)">
        <path d="M681.395,268.478C680.42,269.266 593.064,275.812 577.993,277.1C556.743,278.92 535.7,283.266 514.449,285.19C475.453,288.711 438.079,299.978 401.016,312.328C375.813,320.727 351.179,331.135 326.493,341.269C310.508,347.847 302.809,345.271 295.265,328.919C292.796,323.578 290.276,318.27 287.98,312.86C284.459,304.53 283.975,297.058 288.947,288.247C301.065,266.708 317.223,249.034 333.243,231.257C369.132,191.461 399.497,147.181 426.72,100.24C428.809,96.616 429.759,92.218 432.124,85.812C417.761,85.4 405.505,84.043 393.386,84.884C369.995,86.533 346.57,88.612 323.351,92.064C305.657,94.692 288.239,99.518 270.787,103.812C261.672,106.045 252.557,108.639 243.84,112.211C239.817,113.86 235.812,117.536 233.396,121.435C211.334,157.023 190.498,193.522 167.556,228.458C139.193,271.638 109.242,313.581 76.046,352.725C63.117,367.977 50.756,383.814 38.414,399.65C29.938,410.539 17.319,409.56 11.518,397.091C8.843,391.354 6.288,385.548 3.508,379.863C0.746,374.212 1.506,369.729 5.891,365.126C17.146,353.344 27.555,340.582 39.139,329.194C73.371,295.53 100.68,255.493 129.267,216.606C135.257,208.448 139.418,198.091 150.656,196.425C159.356,181.464 176.17,171.451 175.134,149.174C184.594,147.13 188.564,140.964 188.927,127.206C178.5,124.063 168.885,128.58 159.045,130.984C129.958,138.112 101.112,146.941 70.867,146.202C65.361,146.065 59.819,145.344 54.347,144.485C36.135,141.599 26.848,127.584 19.943,111.198C16.922,104.035 21.444,97.165 28.574,99.089C49.755,104.791 70.937,102.215 92.135,100.858C98.919,100.429 105.686,99.261 112.367,97.801C143.716,90.965 174.996,83.768 206.38,77.052C215.011,75.214 220.811,70.508 225.058,62.298C233.551,45.861 242.579,29.733 251.314,13.433C256.2,4.329 259.462,2.732 269.216,5.274C271.304,5.807 273.359,6.459 275.378,7.198C290.742,12.831 295.179,26.246 286.409,40.914C283.492,45.792 280.264,50.464 275.482,57.85C288.429,55.995 298.925,55.359 309.041,52.92C349.729,43.095 390.935,40.502 432.469,41.378C438.804,41.515 445.727,41.756 451.371,39.3C464.698,33.494 485.362,47.716 491.732,59.241C496.979,68.739 494.735,77.877 489.332,86.43C476.351,106.887 463.835,127.721 450.198,147.645C429.413,177.995 408.025,207.864 386.498,237.595C380.491,245.891 372.913,252.865 366.353,260.731C364.247,263.273 363.056,266.726 360.432,271.707C365.179,271.672 368.062,272.205 370.668,271.552C397.253,264.802 423.63,257.038 450.387,251.267C469.584,247.128 489.246,245.393 508.753,242.971C538.41,239.261 568.119,236.17 597.759,232.236C602.24,231.64 646.673,227.622 646.673,227.622C646.673,227.622 673.184,252.934 681.395,268.478Z"/>   
    </g>

    <g transform="matrix(0.996394,0,0,1.00143,-3.86259e-15,2.77261e-15)">
        <path d="M180.069,147.626C178.654,148.417 177.02,148.959 175.134,149.174C176.992,148.938 178.63,148.401 180.069,147.626Z"/>
    </g>

    <g transform="matrix(0.996394,0,0,1.00143,-3.86259e-15,2.77261e-15)">
        <path d="M424.058,91.242C409.005,90.432 395.16,89.513 380.197,91.858C339.63,94.864 291.053,101.82 252.695,114.702C243.253,116.832 239.731,119.751 235.174,127.927C198.042,187.047 163.085,247.626 120.135,303.121C99.213,331.204 75.891,357.483 54.192,384.621C43.92,397.589 26.71,423.816 10.776,400.938C5.977,389.688 -7.212,373.199 5.131,362.739C31.698,333.797 60.303,306.866 84.142,275.606C99.454,255.836 116.268,233.147 131.131,212.776C135.689,205.768 141.127,197.129 150.587,195.995C158.804,182.306 177.016,168.479 175.134,149.174C177.119,168.771 160.116,181.756 150.915,196.82C141.852,197.919 136.742,206.232 132.202,213.48C117.753,234.126 101.215,257.021 86.145,277.134C62.806,308.772 34.34,336.443 8.308,365.745C5.269,368.768 3.543,371.894 4.354,375.415C9.136,386.27 17.215,414.576 33.477,400.955C60.475,367.411 88.51,333.213 114.128,298.69C159.908,239.725 192.742,171.76 235.899,111.267C239.023,108.072 245.151,106.646 249.243,105.272C288.394,91.703 337.662,84.111 379.231,80.728C397.322,77.619 421.904,79.697 440.427,80.316C437.958,86.808 435.99,92.699 433.556,99.656C429.154,108.089 419.453,124.234 414.464,132.307C388.76,174.371 358.205,214.459 324.974,250.597C314.34,262.827 304.414,275.399 296.508,289.02C292.296,295.77 291.312,300.476 293.28,306.831C297.095,315.247 301.6,328.885 308.264,335.704C310.094,337.198 311.492,337.525 314.375,337.284C326.821,334.536 368.372,316.604 381.924,311.864C443.327,285.945 509.875,276.997 575.784,269.645C590.562,267.833 645.795,261.702 659.449,269.181C662.25,274.738 673.409,268.961 676.091,274.764C672.036,275.437 591.993,283.695 577.182,284.846C512.412,291.957 447.574,300.27 386.826,325.725C372.188,330.62 329.756,349.599 315.842,351.695C293.107,353.79 287.152,327.442 279.78,310.902C272.806,283.489 300.254,261.453 314.824,241.803C354.148,200.014 387.828,154.241 416.95,105.118C420.317,100.016 422.285,95.947 424.058,91.242C426.649,91.382 429.276,91.518 431.951,91.634C431.951,91.634 426.634,83.819 426.617,83.819C425.719,86.565 424.911,88.978 424.058,91.242Z"/>
    </g>

    <g transform="matrix(0.996394,0,0,1.00143,-3.86259e-15,2.77261e-15)">
        <path d="M284.377,52.211L279.245,60.254L274.861,53.435C277.904,53.11 281.093,52.694 284.377,52.211Z"/>
    </g>

    <g transform="matrix(0.996394,0,0,1.00143,-3.86259e-15,2.77261e-15)">
        <path d="M180.069,147.626C186.934,143.786 188.643,134.076 188.858,127.412C177.344,124.063 166.209,130.177 154.971,132.496C121.274,141.17 86.784,151.853 51.516,145.24C39.449,142.887 29.92,133.698 24.189,123.513C20.288,116.488 12.192,104.276 22.135,97.955C25.536,96.032 29.472,97.44 31.871,97.99C88.786,107.814 146.875,85.537 202.547,74.613C214.994,72.999 220.19,65.355 225.196,54.638L241.44,23.858C247.43,13.123 252.713,-4.516 268.939,1.066C292.503,5.12 302.843,25.61 288.671,45.483L284.377,52.211C281.093,52.694 277.904,53.11 274.861,53.435L279.245,60.254L284.377,52.211C300.672,49.817 319.299,45.783 333.968,43.01C368.752,36.826 404.331,35.658 439.581,36.259C444.812,36.38 448.316,34.714 453.236,33.254C483.238,29.939 513.914,63.827 493.441,90.363C459.934,144.021 421.628,201.818 382.873,252.057C381.34,254.073 375.205,260.135 371.812,264.432C371.472,264.521 371.154,264.604 370.858,264.682C367.44,265.832 363.936,265.008 360.397,265.145L366.266,274.764L369.615,267.894C369.876,267.069 370.695,265.846 371.812,264.432C379.732,262.361 399.03,257.387 406.264,255.51C453.029,241.683 502.521,236.41 550.476,230.587L598.346,224.679C598.749,224.612 616.024,221.69 627.569,222.084C634.482,222.32 644.244,226.269 649.285,228.922C653.008,230.881 657.486,232.17 658.357,234.171C656.648,234.661 602.735,238.929 600.987,239.193L552.341,245.067C495.719,250.941 440.41,258.876 385.894,274.558C381.095,275.314 371.48,279.075 366.335,278.457C362.296,278.405 353.975,277.976 349.97,277.924C352.163,273.922 355.788,265.97 357.877,262.071C359.948,256.523 369.598,247.969 373.292,243.435C408.232,198.64 445.347,144.914 475.867,96.976C487.036,80.814 497.394,66.558 478.439,52.199C471.638,46.599 462.437,42.134 455.463,43.508C450.75,45.294 444.881,46.702 439.875,46.599C405.107,45.741 369.857,46.496 335.556,52.302C318.276,55.411 293.867,60.34 276.121,62.247L267.041,63.552L271.736,55.428C285.149,36.448 298.441,16.473 267.075,8.898C261.223,7.61 259.359,7.696 256.407,12.436C250.796,22.106 237.124,47.613 231.428,57.832C227.147,68.602 216.409,80.247 203.894,80.9C147.358,91.085 89.149,112.538 31.008,101.597C25.57,99.501 20.875,100.755 20.737,106.766C31.129,154.79 83.297,147.353 120.808,139.59C132.167,137.168 143.423,134.282 154.73,131.551C165.743,129.559 177.913,123.015 189.151,127.206C189.237,134.882 186.907,143.942 180.069,147.626Z"/>
    </g>

    <g transform="matrix(0.996394,0,0,1.00143,-3.86259e-15,2.77261e-15)">
        <path d="M424.058,91.242C424.911,88.978 425.719,86.565 426.617,83.819C426.634,83.819 431.951,91.634 431.951,91.634C429.276,91.518 426.649,91.382 424.058,91.242Z"/>
    </g>

    <g transform="matrix(0.996394,0,0,1.00143,-3.86259e-15,2.77261e-15)">
        <path d="M371.812,264.432C370.695,265.846 369.876,267.069 369.615,267.894L366.266,274.764L360.397,265.145C363.936,265.008 367.44,265.832 370.858,264.682C371.154,264.604 371.472,264.521 371.812,264.432Z"/>
    </g>
</g>

</svg>