<?xml version="1.0" encoding="UTF-8" standalone="no"?>
<!DOCTYPE svg PUBLIC "-//W3C//DTD SVG 1.1//EN" "http://www.w3.org/Graphics/SVG/1.1/DTD/svg11.dtd">

<svg width="100%" height="100%" viewBox="0 0 1430 449" version="1.1" xmlns="http://www.w3.org/2000/svg" xmlns:xlink="http://www.w3.org/1999/xlink" xml:space="preserve" xmlns:serif="http://www.serif.com/">

    <style>
        #shebang {
            fill: #d377b3;
        }        
        #creative-services {
            fill: #4682b3;
        }        
    </style>

<g id="shebang" transform="matrix(1.02561,0,0,1.02416,3.43407e-15,-4.84219e-15)">

    <g transform="matrix(17.2004,0,0,17.2004,174.503,283.825)">
        <path d="M0,-7.816C0.548,-7.935 0.778,-8.294 0.799,-9.095C0.195,-9.278 -0.362,-9.015 -0.932,-8.875C-2.617,-8.46 -4.288,-7.946 -6.04,-7.989C-6.359,-7.997 -6.68,-8.039 -6.997,-8.089C-8.052,-8.257 -8.59,-9.073 -8.99,-10.027C-9.165,-10.444 -8.903,-10.844 -8.49,-10.732C-7.263,-10.4 -6.036,-10.55 -4.808,-10.629C-4.415,-10.654 -4.023,-10.722 -3.636,-10.807C-1.82,-11.205 -0.008,-11.624 1.81,-12.015C2.31,-12.122 2.646,-12.396 2.892,-12.874C3.384,-13.831 3.907,-14.77 4.413,-15.719C4.696,-16.249 4.885,-16.342 5.45,-16.194C5.571,-16.163 5.69,-16.125 5.807,-16.082C6.697,-15.754 6.954,-14.973 6.446,-14.119C6.277,-13.835 6.09,-13.563 5.813,-13.133C6.563,-13.241 7.171,-13.278 7.757,-13.42C10.114,-13.992 12.501,-14.143 14.907,-14.092C15.274,-14.084 15.675,-14.07 16.002,-14.213C16.774,-14.551 17.971,-13.723 18.34,-13.052C18.644,-12.499 18.514,-11.967 18.201,-11.469C17.449,-10.278 16.724,-9.065 15.934,-7.905C14.73,-6.138 13.491,-4.399 12.244,-2.668C11.896,-2.185 11.457,-1.779 11.077,-1.321C10.955,-1.173 10.886,-0.972 10.734,-0.682C11.009,-0.684 11.176,-0.653 11.327,-0.691C12.867,-1.084 14.395,-1.536 15.945,-1.872C17.057,-2.113 18.196,-2.214 19.326,-2.355C21.044,-2.571 22.765,-2.751 24.482,-2.98C25.102,-3.063 25.646,-3.386 26.167,-3.77C27.493,-4.748 28.849,-5.678 30.171,-6.663C30.601,-6.984 31.16,-7.179 31.363,-7.868C30.88,-8.914 30.254,-9.823 29.063,-10.095C28.543,-10.214 28.191,-10.548 28.11,-11.174C28.073,-11.46 27.956,-11.74 27.844,-12.007C27.715,-12.315 27.601,-12.607 27.87,-12.891C28.128,-13.165 28.418,-13.165 28.759,-13.071C29.812,-12.78 30.61,-12.072 31.337,-11.256C31.835,-10.696 32.289,-10.09 32.766,-9.509C33.193,-8.99 33.396,-8.96 33.898,-9.321C34.887,-10.032 35.89,-10.723 36.861,-11.462C37.384,-11.86 37.894,-12.299 38.333,-12.8C38.64,-13.15 38.963,-13.232 39.325,-13.116C39.929,-12.922 40.435,-12.543 40.735,-11.916C41.021,-11.32 40.577,-10.275 39.991,-10.059C39.599,-9.914 39.195,-9.757 38.852,-9.515C37.548,-8.595 36.267,-7.636 34.976,-6.694C34.461,-6.318 34.45,-6.316 34.691,-5.662C35.391,-3.765 36.252,-1.957 37.222,-0.208C37.515,0.319 37.808,0.847 38.1,1.375C38.844,2.722 39.803,3.875 40.873,4.918C41.198,5.235 41.593,5.481 41.986,5.697C42.777,6.134 42.956,7.75 42.255,8.319C41.999,8.526 41.347,8.495 41.059,8.254C40.982,8.188 40.915,8.105 40.853,8.022C39.492,6.185 37.783,4.66 36.649,2.623C35.883,1.247 35.182,-0.173 34.484,-1.591C33.972,-2.63 33.516,-3.7 33.025,-4.751C32.962,-4.885 32.835,-4.984 32.699,-5.146C32.222,-4.825 31.754,-4.536 31.31,-4.209C30.411,-3.547 29.504,-2.895 28.644,-2.177C28.204,-1.81 27.865,-1.303 27.468,-0.872C27.209,-0.591 26.956,-0.281 26.646,-0.084C26.462,0.032 26.117,0.058 25.942,-0.054C25.107,-0.594 24.21,-0.443 23.337,-0.368C22.106,-0.262 20.887,-0.009 19.656,0.103C17.397,0.308 15.232,0.964 13.085,1.683C11.625,2.172 10.198,2.778 8.768,3.368C7.842,3.751 7.396,3.601 6.959,2.649C6.816,2.338 6.67,2.029 6.537,1.714C6.333,1.229 6.305,0.794 6.593,0.281C7.295,-0.973 8.231,-2.002 9.159,-3.037C11.238,-5.354 12.997,-7.932 14.574,-10.665C14.695,-10.876 14.75,-11.132 14.887,-11.505C14.055,-11.529 13.345,-11.608 12.643,-11.559C11.288,-11.463 9.931,-11.342 8.586,-11.141C7.561,-10.988 6.552,-10.707 5.541,-10.457C5.013,-10.327 4.485,-10.176 3.98,-9.968C3.747,-9.872 3.515,-9.658 3.375,-9.431C2.097,-7.359 0.89,-5.234 -0.439,-3.2C-2.082,-0.686 -3.817,1.756 -5.74,4.035C-6.489,4.923 -7.205,5.845 -7.92,6.767C-8.411,7.401 -9.142,7.344 -9.478,6.618C-9.633,6.284 -9.781,5.946 -9.942,5.615C-10.102,5.286 -10.058,5.025 -9.804,4.757C-9.152,4.071 -8.549,3.328 -7.878,2.665C-5.895,0.705 -4.313,-1.626 -2.657,-3.89C-2.31,-4.365 -2.069,-4.968 -1.418,-5.065C-0.914,-5.936 0.06,-6.519 0,-7.816" style="fill-rule:nonzero;"/>
    </g>

    <g transform="matrix(17.2004,0,0,17.2004,174.503,283.757)">
        <path d="M0,-7.812C0.115,-6.671 -0.87,-5.915 -1.403,-5.038C-1.928,-4.974 -2.224,-4.49 -2.487,-4.068C-3.324,-2.866 -4.282,-1.533 -5.155,-0.362C-6.507,1.48 -8.156,3.091 -9.664,4.797C-9.84,4.973 -9.94,5.155 -9.893,5.36C-9.616,5.992 -9.148,7.64 -8.206,6.847C-6.642,4.894 -5.018,2.903 -3.534,0.893C-0.882,-2.54 1.02,-6.497 3.52,-10.019C3.701,-10.205 4.056,-10.288 4.293,-10.368C6.561,-11.158 9.415,-11.6 11.823,-11.797C12.871,-11.978 14.295,-11.857 15.368,-11.821C15.225,-11.443 15.111,-11.1 14.97,-10.695C14.715,-10.204 14.153,-9.264 13.864,-8.794C12.375,-6.345 10.605,-4.011 8.68,-1.907C8.064,-1.195 7.489,-0.463 7.031,0.33C6.787,0.723 6.73,0.997 6.844,1.367C7.065,1.857 7.326,2.651 7.712,3.048C7.818,3.135 7.899,3.154 8.066,3.14C8.787,2.98 11.194,1.936 11.979,1.66C15.536,0.151 19.391,-0.37 23.209,-0.798C24.134,-0.912 25.381,-0.999 26.172,-0.435C26.211,-0.418 26.399,-0.428 26.446,-0.488C27.173,-1.058 27.646,-1.926 28.374,-2.538C29.678,-3.536 31.06,-4.635 32.442,-5.525L32.818,-5.775C33.029,-5.414 33.217,-5.33 33.446,-4.937C34.31,-2.985 35.858,0.115 36.871,2.023C37.782,3.856 39.278,5.312 40.582,6.898C40.846,7.207 41.083,7.547 41.349,7.858C41.388,7.91 41.378,7.889 41.428,7.917C41.505,7.951 41.629,7.975 41.741,7.974C42.349,8.109 42.313,6.462 41.806,6.171C40.272,5.324 39.237,3.958 38.25,2.582C36.605,-0.182 35.101,-2.907 34.079,-5.964C34.052,-6.077 34.018,-6.309 34.129,-6.538C34.346,-6.903 34.591,-6.988 34.872,-7.216L36.556,-8.438C37.152,-8.844 38.516,-9.951 39.197,-10.252C39.426,-10.36 39.651,-10.43 39.874,-10.528C40.265,-10.8 40.521,-11.498 40.192,-11.912C39.961,-12.286 39.166,-12.957 38.749,-12.55C37.529,-11.163 35.68,-10.092 34.221,-8.98C33.188,-8.128 32.598,-8.945 31.998,-9.719C30.965,-10.977 29.94,-12.436 28.386,-12.671C27.895,-12.601 28.364,-12.094 28.473,-11.608C28.639,-10.981 28.537,-10.833 28.961,-10.594C30.326,-10.352 31.367,-9.121 31.829,-7.91C31.548,-6.664 30.392,-6.406 29.559,-5.678L27.273,-4.031C26.504,-3.514 25.637,-2.718 24.669,-2.571L21.851,-2.229C18.571,-1.887 15.367,-1.425 12.209,-0.512C11.931,-0.468 11.374,-0.249 11.076,-0.285C10.842,-0.288 10.36,-0.313 10.128,-0.316C10.255,-0.549 10.465,-1.012 10.586,-1.239C10.706,-1.562 11.265,-2.06 11.479,-2.324C13.503,-4.932 15.653,-8.06 17.421,-10.851C18.068,-11.792 18.668,-12.622 17.57,-13.458C17.176,-13.784 16.643,-14.044 16.239,-13.964C15.966,-13.86 15.626,-13.778 15.336,-13.784C13.322,-13.834 11.28,-13.79 9.293,-13.452C8.292,-13.271 6.878,-12.984 5.85,-12.873L5.324,-12.797L5.596,-13.27C6.373,-14.375 7.143,-15.538 5.326,-15.979C4.987,-16.054 4.879,-16.049 4.708,-15.773C4.383,-15.21 3.591,-13.725 3.261,-13.13C3.013,-12.503 2.391,-11.825 1.666,-11.787C-1.609,-11.194 -4.981,-9.945 -8.349,-10.582C-8.664,-10.704 -8.936,-10.631 -8.944,-10.281C-8.342,-7.485 -5.32,-7.918 -3.147,-8.37C-2.489,-8.511 -1.837,-8.679 -1.182,-8.838C-0.544,-8.954 0.161,-9.335 0.812,-9.091C0.818,-8.55 0.619,-7.891 0,-7.812M0,-7.812C0.639,-7.885 0.78,-8.611 0.795,-9.079C0.128,-9.274 -0.517,-8.918 -1.168,-8.783C-3.12,-8.278 -5.118,-7.656 -7.161,-8.041C-7.86,-8.178 -8.412,-8.713 -8.744,-9.306C-8.97,-9.715 -9.439,-10.426 -8.863,-10.794C-8.666,-10.906 -8.438,-10.824 -8.299,-10.792C-5.002,-10.22 -1.637,-11.517 1.588,-12.153C2.309,-12.247 2.61,-12.692 2.9,-13.316L3.841,-15.108C4.188,-15.733 4.494,-16.76 5.434,-16.435C6.799,-16.199 7.398,-15.006 6.577,-13.849L6.031,-12.989L5.777,-13.386C6.828,-13.499 8.18,-13.799 9.201,-13.993C11.216,-14.353 13.277,-14.421 15.319,-14.386C15.622,-14.379 15.825,-14.476 16.11,-14.561C17.848,-14.754 19.625,-12.781 18.439,-11.236C16.498,-8.112 14.279,-4.747 12.034,-1.822C11.916,-1.666 11.327,-1.094 11.266,-0.9L11.072,-0.5L10.732,-1.06C10.937,-1.068 11.14,-1.02 11.338,-1.087C11.755,-1.197 12.952,-1.507 13.389,-1.621C16.098,-2.426 18.965,-2.733 21.743,-3.072L24.516,-3.416C25.282,-3.544 25.981,-4.189 26.758,-4.728L29.037,-6.38C29.578,-6.879 30.693,-7.293 30.94,-7.989L30.963,-7.679C30.555,-8.556 30.05,-9.33 29.138,-9.61C28.798,-9.667 28.256,-9.885 28.015,-10.229C27.691,-10.604 27.677,-11.172 27.612,-11.351C27.543,-11.651 27.346,-11.858 27.258,-12.429C27.221,-13.064 27.759,-13.55 28.351,-13.574C30.714,-13.386 31.992,-10.978 33.371,-9.54C34.728,-10.479 37.081,-12.046 38.096,-13.228C39.077,-14.204 40.658,-13.192 41.145,-12.154C41.491,-11.394 41.216,-10.524 40.654,-9.932C40.382,-9.638 39.943,-9.544 39.595,-9.38C39.066,-9.167 37.637,-7.988 37.12,-7.652C36.777,-7.412 35.338,-6.347 35.048,-6.135C34.996,-6.097 34.974,-6.057 35.006,-6.109C35.041,-6.18 35.021,-6.228 35.032,-6.175C35.094,-5.953 35.248,-5.569 35.362,-5.27C36.339,-2.736 37.699,-0.288 39.079,2.029C39.981,3.319 41.022,4.639 42.398,5.388C43.58,6.272 43.48,8.942 41.739,8.946C41.403,8.948 40.944,8.843 40.695,8.574C39.144,6.549 37.218,4.793 36.041,2.48C35.136,0.749 33.588,-2.318 32.826,-4.072C32.662,-4.41 32.668,-4.525 32.346,-4.844L32.956,-4.758C31.607,-3.896 30.236,-2.811 28.955,-1.84C27.979,-1.111 27.215,1.002 25.698,0.326C24.966,-0.143 24.148,0.02 23.29,0.087C19.538,0.501 15.782,0.985 12.263,2.467C11.415,2.752 8.957,3.857 8.151,3.979C6.834,4.101 6.489,2.567 6.062,1.604C5.658,0.008 7.248,-1.275 8.092,-2.419C10.37,-4.852 12.321,-7.517 14.008,-10.377C14.297,-10.817 14.408,-11.125 14.568,-11.617C14.569,-11.617 14.877,-11.162 14.877,-11.162C13.822,-11.208 12.895,-11.309 11.879,-11.149C9.529,-10.974 6.715,-10.569 4.493,-9.819C3.946,-9.695 3.742,-9.525 3.478,-9.049C1.327,-5.607 -0.698,-2.08 -3.186,1.151C-4.398,2.786 -5.749,4.316 -7.006,5.896C-7.601,6.651 -8.598,8.178 -9.521,6.846C-9.799,6.191 -10.563,5.231 -9.848,4.622C-8.309,2.937 -6.652,1.369 -5.271,-0.451C-4.384,-1.602 -3.41,-2.923 -2.549,-4.109C-2.285,-4.517 -1.97,-5.02 -1.422,-5.086C-0.946,-5.883 0.109,-6.688 0,-7.812" style="fill-rule:nonzero;"/>
    </g>

    <g transform="matrix(17.2004,0,0,17.2004,1013.09,104.346)">
        <path d="M0,7.588C1.117,7.534 2.282,7.272 3.411,6.833C3.772,6.692 4.078,6.446 4.244,6.028C4.403,5.625 4.619,5.249 4.783,4.848C5.469,3.169 5.47,2.78 4.168,1.265C4.152,1.246 4.133,1.23 4.115,1.212C3.624,0.714 3.557,0.692 3.06,1.184C2.717,1.523 2.358,1.589 1.938,1.453C1.265,1.234 0.611,1.344 -0.026,1.607C-0.405,1.763 -0.792,1.919 -1.139,2.142C-2.199,2.822 -3.147,3.627 -3.704,4.878C-4.168,5.918 -3.917,6.695 -2.908,7.097C-2.528,7.249 -2.131,7.372 -1.732,7.434C-1.188,7.52 -0.636,7.535 0,7.588M-0.148,10.433C-0.886,10.359 -1.63,10.326 -2.361,10.201C-3.528,10.002 -4.452,9.327 -5.128,8.289C-5.329,7.981 -5.449,7.595 -5.545,7.226C-6.343,4.178 -5.7,2.243 -3.319,0.301C-2.919,-0.025 -2.49,-0.315 -2.054,-0.582C-1.772,-0.756 -1.624,-0.967 -1.629,-1.322C-1.632,-1.501 -1.587,-1.681 -1.563,-1.861C-1.502,-2.323 -1.257,-2.627 -0.846,-2.729C-0.546,-2.804 -0.233,-2.841 0.075,-2.841C1.736,-2.845 3.231,-2.288 4.539,-1.183C4.856,-0.916 5.125,-0.567 5.368,-0.216C5.781,0.382 6.188,0.991 6.541,1.632C7.128,2.697 7.169,3.843 6.869,5.022C6.678,5.772 6.483,6.522 6.335,7.282C6.147,8.255 5.617,8.885 4.809,9.303C3.467,9.998 2.042,10.284 0.573,10.377C0.334,10.392 0.094,10.382 -0.146,10.384C-0.146,10.4 -0.147,10.417 -0.148,10.433" style="fill-rule:nonzero;"/>
    </g>

    <g transform="matrix(17.2004,0,0,17.2004,1010.53,40.7902)">
        <path d="M0,14.128C2.071,13.77 5.761,13.507 6.187,10.858L6.714,8.308C6.944,7.053 6.658,5.924 5.893,4.923C5.497,4.359 4.949,3.369 4.443,2.94C3.105,1.762 1.225,1.128 -0.542,1.438C-0.694,1.464 -0.753,1.51 -0.816,1.584C-0.943,1.744 -0.957,2.037 -1.013,2.603C-1.044,2.945 -1.31,3.307 -1.557,3.457L-2.102,3.825C-3.51,4.707 -4.768,5.932 -5.198,7.476C-5.738,9.775 -5.082,12.921 -2.548,13.687C-1.845,13.894 -0.734,13.979 0,14.128M0,14.128C-1.689,14.089 -3.748,14.075 -4.889,12.527C-5.989,11.088 -6.235,9.069 -5.941,7.294C-5.503,5.21 -3.784,3.791 -2.109,2.673C-1.995,2.583 -1.986,2.562 -1.968,2.467C-1.908,2.191 -1.994,1.541 -1.587,0.985C-1.388,0.712 -1.042,0.529 -0.768,0.483C1.749,0 4.606,1.151 5.978,3.323L6.676,4.455C7.5,5.558 7.834,7.132 7.47,8.459L6.809,10.979C6.209,13.946 2.281,14.072 0,14.128" style="fill-rule:nonzero;"/>
    </g>
    
    <g transform="matrix(17.2004,0,0,17.2004,1013.09,111.088)">
        <path d="M0,7.196C-1.392,7.018 -3.846,7.271 -4.086,5.385C-3.956,2.848 -0.531,-0.051 2.007,0.56C2.485,0.688 2.453,0.69 2.955,0.232C3.142,0.074 3.373,-0.075 3.687,-0.027C4.245,0.155 4.234,0.328 4.557,0.647C4.986,1.22 5.445,1.737 5.559,2.562C5.614,3.231 5.346,3.751 5.138,4.237C4.737,4.935 4.509,5.797 3.87,6.311C2.673,6.896 1.314,7.102 0,7.196M0,7.196C1.054,7.134 2.094,6.891 3.067,6.494C3.577,6.328 3.988,6.019 4.118,5.535C4.64,4.098 5.532,2.731 4.138,1.508C3.988,1.348 3.805,1.121 3.63,0.983C3.557,0.905 3.434,0.86 3.546,0.904C3.608,0.917 3.668,0.894 3.659,0.897C3.444,1.054 3.265,1.358 2.811,1.53C1.909,1.825 1.329,1.183 0.454,1.552C-0.925,2.023 -2.343,2.822 -3.187,4.042C-3.781,4.817 -4.149,6.029 -3.061,6.56C-2.264,7.045 -0.912,7.105 0,7.196"/>
    </g>
    
    <g id="creative-services" transform="matrix(14.5958,-0.0922779,0.108743,17.2001,-192.24,-719.712)">
    
        <path d="M37.573,65.696C37.573,66.867 38.287,67.534 39.594,67.534C40.138,67.534 40.6,67.418 40.928,67.223C41.236,67.048 41.426,66.806 41.426,66.561C41.426,66.308 41.209,66.13 40.901,66.13C40.715,66.13 40.577,66.186 40.371,66.342C40.145,66.528 39.928,66.614 39.683,66.614C39.152,66.614 38.867,66.275 38.867,65.641L38.867,65.424C38.867,64.843 39.162,64.506 39.683,64.506C39.928,64.506 40.115,64.59 40.351,64.782C40.554,64.929 40.702,64.99 40.895,64.99C41.203,64.99 41.419,64.815 41.419,64.559C41.419,64.376 41.288,64.176 41.075,64.003C40.751,63.742 40.197,63.589 39.594,63.589C38.313,63.589 37.573,64.259 37.573,65.363L37.573,65.696Z" />
        
        <path d="M43.299,66.889L43.299,66.169L43.755,66.169L44.269,67.014C44.479,67.362 44.659,67.476 45.003,67.476C45.383,67.476 45.649,67.265 45.649,66.959C45.649,66.848 45.613,66.728 45.54,66.628L45.033,65.894C45.504,65.688 45.763,65.318 45.763,64.851C45.763,64.109 45.121,63.656 44.069,63.656L42.841,63.656C42.277,63.656 42.002,63.909 42.002,64.42L42.002,66.889C42.002,67.265 42.241,67.479 42.66,67.479C43.073,67.479 43.299,67.267 43.299,66.889ZM43.299,65.427L43.299,64.509L43.889,64.509C44.259,64.509 44.489,64.665 44.489,64.957C44.489,65.257 44.256,65.427 43.899,65.427L43.299,65.427Z" />
        
        <path d="M46.316,66.878C46.316,67.24 46.569,67.451 46.988,67.451L49.046,67.451C49.347,67.451 49.547,67.284 49.547,67.026C49.547,66.77 49.347,66.6 49.049,66.6L47.597,66.6L47.597,65.938L49.006,65.938C49.262,65.938 49.436,65.785 49.436,65.555C49.436,65.324 49.262,65.165 49.006,65.165L47.597,65.165L47.597,64.506L49.069,64.506C49.347,64.506 49.547,64.331 49.547,64.084C49.547,63.834 49.347,63.656 49.069,63.656L46.988,63.656C46.569,63.656 46.316,63.87 46.316,64.228L46.316,66.878Z" style="fill-rule:nonzero;"/>
        
        <path d="M50.428,67.479C50.769,67.479 50.952,67.329 51.08,66.942L51.168,66.692L52.6,66.692L52.689,66.942C52.813,67.317 53.013,67.479 53.354,67.479C53.724,67.479 53.97,67.292 53.97,67.003C53.97,66.889 53.934,66.756 53.862,66.561L53.023,64.406C52.803,63.845 52.499,63.628 51.919,63.628C51.335,63.628 51.024,63.848 50.808,64.406L49.963,66.561C49.871,66.798 49.835,66.925 49.835,67.031C49.835,67.295 50.081,67.479 50.428,67.479ZM51.417,65.913L51.856,64.582L51.925,64.582L52.354,65.913L51.417,65.913Z" style="fill-rule:nonzero;"/>
        
        <path d="M55.545,67.479C55.945,67.479 56.191,67.262 56.191,66.906L56.191,64.54L56.944,64.54C57.226,64.54 57.436,64.348 57.436,64.098C57.436,63.848 57.226,63.656 56.944,63.656L54.153,63.656C53.871,63.656 53.655,63.85 53.655,64.098C53.655,64.345 53.871,64.54 54.153,64.54L54.896,64.54L54.896,66.906C54.896,67.265 55.139,67.479 55.545,67.479Z" style="fill-rule:nonzero;"/>
        
        <path d="M58.392,67.479C58.805,67.479 59.031,67.267 59.031,66.889L59.031,64.217C59.031,63.842 58.798,63.628 58.382,63.628C57.969,63.628 57.737,63.839 57.737,64.217L57.737,66.889C57.737,67.265 57.972,67.479 58.392,67.479Z" style="fill-rule:nonzero;"/>
        
        <path d="M61.609,66.314L61.55,66.314L60.826,64.167C60.704,63.8 60.485,63.628 60.154,63.628C59.784,63.628 59.522,63.828 59.522,64.117C59.522,64.223 59.558,64.37 59.62,64.534L60.436,66.697C60.639,67.245 60.976,67.479 61.56,67.479C62.136,67.479 62.464,67.248 62.67,66.697L63.49,64.534C63.545,64.376 63.585,64.215 63.585,64.106C63.585,63.82 63.329,63.628 62.955,63.628C62.608,63.628 62.421,63.781 62.3,64.167L61.609,66.314Z" style="fill-rule:nonzero;"/>
        
        <path d="M64.085,66.878C64.085,67.24 64.338,67.451 64.757,67.451L66.815,67.451C67.116,67.451 67.316,67.284 67.316,67.026C67.316,66.77 67.116,66.6 66.818,66.6L65.366,66.6L65.366,65.938L66.775,65.938C67.031,65.938 67.205,65.785 67.205,65.555C67.205,65.324 67.031,65.165 66.775,65.165L65.366,65.165L65.366,64.506L66.838,64.506C67.116,64.506 67.316,64.331 67.316,64.084C67.316,63.834 67.116,63.656 66.838,63.656L64.757,63.656C64.338,63.656 64.085,63.87 64.085,64.228L64.085,66.878Z" style="fill-rule:nonzero;"/>
        
        <path d="M77.741,66.672C77.741,66.823 77.836,66.975 78.007,67.115C78.324,67.373 78.904,67.534 79.56,67.534C80.736,67.534 81.496,67.031 81.496,66.255C81.496,65.666 81.073,65.307 80.231,65.179L79.655,65.093C79.242,65.032 79.065,64.907 79.065,64.729C79.065,64.548 79.265,64.434 79.583,64.434C79.874,64.434 80.097,64.509 80.359,64.687C80.529,64.796 80.693,64.851 80.841,64.851C81.132,64.851 81.336,64.693 81.336,64.462C81.336,64.298 81.244,64.142 81.06,63.995C80.749,63.742 80.189,63.589 79.569,63.589C78.469,63.589 77.78,64.062 77.78,64.821C77.78,65.432 78.19,65.794 79.032,65.933L79.596,66.027C80.051,66.105 80.231,66.203 80.231,66.372C80.231,66.581 80.028,66.689 79.625,66.689C79.36,66.689 79.039,66.586 78.757,66.408C78.55,66.28 78.396,66.233 78.233,66.233C77.964,66.233 77.741,66.417 77.741,66.672Z" style="fill-rule:nonzero;"/>
        
        <path d="M82.049,66.878C82.049,67.24 82.301,67.451 82.721,67.451L84.779,67.451C85.08,67.451 85.28,67.284 85.28,67.026C85.28,66.77 85.08,66.6 84.782,66.6L83.33,66.6L83.33,65.938L84.739,65.938C84.995,65.938 85.168,65.785 85.168,65.555C85.168,65.324 84.995,65.165 84.739,65.165L83.33,65.165L83.33,64.506L84.801,64.506C85.08,64.506 85.28,64.331 85.28,64.084C85.28,63.834 85.08,63.656 84.801,63.656L82.721,63.656C82.301,63.656 82.049,63.87 82.049,64.228L82.049,66.878Z" style="fill-rule:nonzero;"/>
        
        <path d="M87.114,66.889L87.114,66.169L87.57,66.169L88.084,67.014C88.294,67.362 88.474,67.476 88.818,67.476C89.198,67.476 89.463,67.265 89.463,66.959C89.463,66.848 89.427,66.728 89.355,66.628L88.847,65.894C89.319,65.688 89.578,65.318 89.578,64.851C89.578,64.109 88.936,63.656 87.884,63.656L86.655,63.656C86.092,63.656 85.817,63.909 85.817,64.42L85.817,66.889C85.817,67.265 86.056,67.479 86.475,67.479C86.888,67.479 87.114,67.267 87.114,66.889ZM87.114,65.427L87.114,64.509L87.704,64.509C88.074,64.509 88.303,64.665 88.303,64.957C88.303,65.257 88.071,65.427 87.714,65.427L87.114,65.427Z" style="fill-rule:nonzero;"/>
        
        <path d="M91.956,66.314L91.897,66.314L91.173,64.167C91.052,63.8 90.832,63.628 90.501,63.628C90.131,63.628 89.869,63.828 89.869,64.117C89.869,64.223 89.905,64.37 89.967,64.534L90.783,66.697C90.986,67.245 91.324,67.479 91.907,67.479C92.484,67.479 92.811,67.248 93.018,66.697L93.837,64.534C93.893,64.376 93.932,64.215 93.932,64.106C93.932,63.82 93.676,63.628 93.303,63.628C92.956,63.628 92.769,63.781 92.648,64.167L91.956,66.314Z" style="fill-rule:nonzero;"/>
        
        <path d="M95.088,67.479C95.501,67.479 95.727,67.267 95.727,66.889L95.727,64.217C95.727,63.842 95.494,63.628 95.078,63.628C94.665,63.628 94.433,63.839 94.433,64.217L94.433,66.889C94.433,67.265 94.669,67.479 95.088,67.479Z" style="fill-rule:nonzero;"/>
        
        <path d="M96.326,65.696C96.326,66.867 97.04,67.534 98.348,67.534C98.891,67.534 99.353,67.418 99.681,67.223C99.989,67.048 100.179,66.806 100.179,66.561C100.179,66.308 99.963,66.13 99.655,66.13C99.468,66.13 99.33,66.186 99.124,66.342C98.898,66.528 98.682,66.614 98.436,66.614C97.905,66.614 97.62,66.275 97.62,65.641L97.62,65.424C97.62,64.843 97.915,64.506 98.436,64.506C98.682,64.506 98.868,64.59 99.104,64.782C99.308,64.929 99.455,64.99 99.648,64.99C99.956,64.99 100.173,64.815 100.173,64.559C100.173,64.376 100.041,64.176 99.829,64.003C99.504,63.742 98.95,63.589 98.348,63.589C97.066,63.589 96.326,64.259 96.326,65.363L96.326,65.696Z" style="fill-rule:nonzero;"/>
        
        <path d="M100.772,66.878C100.772,67.24 101.024,67.451 101.443,67.451L103.501,67.451C103.802,67.451 104.002,67.284 104.002,67.026C104.002,66.77 103.802,66.6 103.504,66.6L102.053,66.6L102.053,65.938L103.462,65.938C103.717,65.938 103.891,65.785 103.891,65.555C103.891,65.324 103.717,65.165 103.462,65.165L102.053,65.165L102.053,64.506L103.524,64.506C103.802,64.506 104.002,64.331 104.002,64.084C104.002,63.834 103.802,63.656 103.524,63.656L101.443,63.656C101.024,63.656 100.772,63.87 100.772,64.228L100.772,66.878Z" style="fill-rule:nonzero;"/>
        
        <path d="M104.392,66.672C104.392,66.823 104.487,66.975 104.657,67.115C104.975,67.373 105.555,67.534 106.21,67.534C107.386,67.534 108.146,67.031 108.146,66.255C108.146,65.666 107.724,65.307 106.882,65.179L106.305,65.093C105.892,65.032 105.715,64.907 105.715,64.729C105.715,64.548 105.915,64.434 106.233,64.434C106.525,64.434 106.747,64.509 107.009,64.687C107.18,64.796 107.344,64.851 107.491,64.851C107.783,64.851 107.986,64.693 107.986,64.462C107.986,64.298 107.894,64.142 107.711,63.995C107.399,63.742 106.839,63.589 106.22,63.589C105.119,63.589 104.431,64.062 104.431,64.821C104.431,65.432 104.84,65.794 105.682,65.933L106.246,66.027C106.701,66.105 106.882,66.203 106.882,66.372C106.882,66.581 106.679,66.689 106.276,66.689C106.01,66.689 105.689,66.586 105.407,66.408C105.201,66.28 105.047,66.233 104.883,66.233C104.614,66.233 104.392,66.417 104.392,66.672Z" style="fill-rule:nonzero;"/>
        
    </g>
</g>
</svg>