<?xml version="1.0" encoding="UTF-8" standalone="no"?>
<!DOCTYPE svg PUBLIC "-//W3C//DTD SVG 1.1//EN" "http://www.w3.org/Graphics/SVG/1.1/DTD/svg11.dtd">
<svg width="100%" height="100%" viewBox="0 0 1146 438" version="1.1" xmlns="http://www.w3.org/2000/svg" xmlns:xlink="http://www.w3.org/1999/xlink" xml:space="preserve" xmlns:serif="http://www.serif.com/" style="fill-rule:evenodd;clip-rule:evenodd;stroke-linejoin:round;stroke-miterlimit:2;">
    <g transform="matrix(1.00362,0,0,0.998573,3.87657e-15,-2.76866e-15)">
        <g transform="matrix(17.2004,0,0,17.2004,174.503,283.825)">
            <path d="M0,-7.816C0.548,-7.935 0.778,-8.294 0.799,-9.095C0.195,-9.278 -0.362,-9.015 -0.932,-8.875C-2.617,-8.46 -4.288,-7.946 -6.04,-7.989C-6.359,-7.997 -6.68,-8.039 -6.997,-8.089C-8.052,-8.257 -8.59,-9.073 -8.99,-10.027C-9.165,-10.444 -8.903,-10.844 -8.49,-10.732C-7.263,-10.4 -6.036,-10.55 -4.808,-10.629C-4.415,-10.654 -4.023,-10.722 -3.636,-10.807C-1.82,-11.205 -0.008,-11.624 1.81,-12.015C2.31,-12.122 2.646,-12.396 2.892,-12.874C3.384,-13.831 3.907,-14.77 4.413,-15.719C4.696,-16.249 4.885,-16.342 5.45,-16.194C5.571,-16.163 5.69,-16.125 5.807,-16.082C6.697,-15.754 6.954,-14.973 6.446,-14.119C6.277,-13.835 6.09,-13.563 5.813,-13.133C6.563,-13.241 7.171,-13.278 7.757,-13.42C10.114,-13.992 12.501,-14.143 14.907,-14.092C15.274,-14.084 15.675,-14.07 16.002,-14.213C16.774,-14.551 17.971,-13.723 18.34,-13.052C18.644,-12.499 18.514,-11.967 18.201,-11.469C17.449,-10.278 16.724,-9.065 15.934,-7.905C14.73,-6.138 13.491,-4.399 12.244,-2.668C11.896,-2.185 11.457,-1.779 11.077,-1.321C10.955,-1.173 10.886,-0.972 10.734,-0.682C11.009,-0.684 11.176,-0.653 11.327,-0.691C12.867,-1.084 14.395,-1.536 15.945,-1.872C17.057,-2.113 18.196,-2.214 19.326,-2.355C21.044,-2.571 22.765,-2.751 24.482,-2.98C25.102,-3.063 25.646,-3.386 26.167,-3.77C27.493,-4.748 28.849,-5.678 30.171,-6.663C30.601,-6.984 31.16,-7.179 31.363,-7.868C30.88,-8.914 30.254,-9.823 29.063,-10.095C28.543,-10.214 28.191,-10.548 28.11,-11.174C28.073,-11.46 27.956,-11.74 27.844,-12.007C27.715,-12.315 27.601,-12.607 27.87,-12.891C28.128,-13.165 28.418,-13.165 28.759,-13.071C29.812,-12.78 30.61,-12.072 31.337,-11.256C31.835,-10.696 32.289,-10.09 32.766,-9.509C33.193,-8.99 33.396,-8.96 33.898,-9.321C34.887,-10.032 35.89,-10.723 36.861,-11.462C37.384,-11.86 37.894,-12.299 38.333,-12.8C38.64,-13.15 38.963,-13.232 39.325,-13.116C39.929,-12.922 40.435,-12.543 40.735,-11.916C41.021,-11.32 40.577,-10.275 39.991,-10.059C39.599,-9.914 39.195,-9.757 38.852,-9.515C37.548,-8.595 36.267,-7.636 34.976,-6.694C34.461,-6.318 34.45,-6.316 34.691,-5.662C35.391,-3.765 36.252,-1.957 37.222,-0.208C37.515,0.319 37.808,0.847 38.1,1.375C38.844,2.722 39.803,3.875 40.873,4.918C41.198,5.235 41.593,5.481 41.986,5.697C42.777,6.134 42.956,7.75 42.255,8.319C41.999,8.526 41.347,8.495 41.059,8.254C40.982,8.188 40.915,8.105 40.853,8.022C39.492,6.185 37.783,4.66 36.649,2.623C35.883,1.247 35.182,-0.173 34.484,-1.591C33.972,-2.63 33.516,-3.7 33.025,-4.751C32.962,-4.885 32.835,-4.984 32.699,-5.146C32.222,-4.825 31.754,-4.536 31.31,-4.209C30.411,-3.547 29.504,-2.895 28.644,-2.177C28.204,-1.81 27.865,-1.303 27.468,-0.872C27.209,-0.591 26.956,-0.281 26.646,-0.084C26.462,0.032 26.117,0.058 25.942,-0.054C25.107,-0.594 24.21,-0.443 23.337,-0.368C22.106,-0.262 20.887,-0.009 19.656,0.103C17.397,0.308 15.232,0.964 13.085,1.683C11.625,2.172 10.198,2.778 8.768,3.368C7.842,3.751 7.396,3.601 6.959,2.649C6.816,2.338 6.67,2.029 6.537,1.714C6.333,1.229 6.305,0.794 6.593,0.281C7.295,-0.973 8.231,-2.002 9.159,-3.037C11.238,-5.354 12.997,-7.932 14.574,-10.665C14.695,-10.876 14.75,-11.132 14.887,-11.505C14.055,-11.529 13.345,-11.608 12.643,-11.559C11.288,-11.463 9.931,-11.342 8.586,-11.141C7.561,-10.988 6.552,-10.707 5.541,-10.457C5.013,-10.327 4.485,-10.176 3.98,-9.968C3.747,-9.872 3.515,-9.658 3.375,-9.431C2.097,-7.359 0.89,-5.234 -0.439,-3.2C-2.082,-0.686 -3.817,1.756 -5.74,4.035C-6.489,4.923 -7.205,5.845 -7.92,6.767C-8.411,7.401 -9.142,7.344 -9.478,6.618C-9.633,6.284 -9.781,5.946 -9.942,5.615C-10.102,5.286 -10.058,5.025 -9.804,4.757C-9.152,4.071 -8.549,3.328 -7.878,2.665C-5.895,0.705 -4.313,-1.626 -2.657,-3.89C-2.31,-4.365 -2.069,-4.968 -1.418,-5.065C-0.914,-5.936 0.06,-6.519 0,-7.816" style="fill-rule:nonzero;"/>
        </g>
        <g transform="matrix(17.2004,0,0,17.2004,174.503,283.757)">
            <path d="M0,-7.812C0.115,-6.671 -0.87,-5.915 -1.403,-5.038C-1.928,-4.974 -2.224,-4.49 -2.487,-4.068C-3.324,-2.866 -4.282,-1.533 -5.155,-0.362C-6.507,1.48 -8.156,3.091 -9.664,4.797C-9.84,4.973 -9.94,5.155 -9.893,5.36C-9.616,5.992 -9.148,7.64 -8.206,6.847C-6.642,4.894 -5.018,2.903 -3.534,0.893C-0.882,-2.54 1.02,-6.497 3.52,-10.019C3.701,-10.205 4.056,-10.288 4.293,-10.368C6.561,-11.158 9.415,-11.6 11.823,-11.797C12.871,-11.978 14.295,-11.857 15.368,-11.821C15.225,-11.443 15.111,-11.1 14.97,-10.695C14.715,-10.204 14.153,-9.264 13.864,-8.794C12.375,-6.345 10.605,-4.011 8.68,-1.907C8.064,-1.195 7.489,-0.463 7.031,0.33C6.787,0.723 6.73,0.997 6.844,1.367C7.065,1.857 7.326,2.651 7.712,3.048C7.818,3.135 7.899,3.154 8.066,3.14C8.787,2.98 11.194,1.936 11.979,1.66C15.536,0.151 19.391,-0.37 23.209,-0.798C24.134,-0.912 25.381,-0.999 26.172,-0.435C26.211,-0.418 26.399,-0.428 26.446,-0.488C27.173,-1.058 27.646,-1.926 28.374,-2.538C29.678,-3.536 31.06,-4.635 32.442,-5.525L32.818,-5.775C33.029,-5.414 33.217,-5.33 33.446,-4.937C34.31,-2.985 35.858,0.115 36.871,2.023C37.782,3.856 39.278,5.312 40.582,6.898C40.846,7.207 41.083,7.547 41.349,7.858C41.388,7.91 41.378,7.889 41.428,7.917C41.505,7.951 41.629,7.975 41.741,7.974C42.349,8.109 42.313,6.462 41.806,6.171C40.272,5.324 39.237,3.958 38.25,2.582C36.605,-0.182 35.101,-2.907 34.079,-5.964C34.052,-6.077 34.018,-6.309 34.129,-6.538C34.346,-6.903 34.591,-6.988 34.872,-7.216L36.556,-8.438C37.152,-8.844 38.516,-9.951 39.197,-10.252C39.426,-10.36 39.651,-10.43 39.874,-10.528C40.265,-10.8 40.521,-11.498 40.192,-11.912C39.961,-12.286 39.166,-12.957 38.749,-12.55C37.529,-11.163 35.68,-10.092 34.221,-8.98C33.188,-8.128 32.598,-8.945 31.998,-9.719C30.965,-10.977 29.94,-12.436 28.386,-12.671C27.895,-12.601 28.364,-12.094 28.473,-11.608C28.639,-10.981 28.537,-10.833 28.961,-10.594C30.326,-10.352 31.367,-9.121 31.829,-7.91C31.548,-6.664 30.392,-6.406 29.559,-5.678L27.273,-4.031C26.504,-3.514 25.637,-2.718 24.669,-2.571L21.851,-2.229C18.571,-1.887 15.367,-1.425 12.209,-0.512C11.931,-0.468 11.374,-0.249 11.076,-0.285C10.842,-0.288 10.36,-0.313 10.128,-0.316C10.255,-0.549 10.465,-1.012 10.586,-1.239C10.706,-1.562 11.265,-2.06 11.479,-2.324C13.503,-4.932 15.653,-8.06 17.421,-10.851C18.068,-11.792 18.668,-12.622 17.57,-13.458C17.176,-13.784 16.643,-14.044 16.239,-13.964C15.966,-13.86 15.626,-13.778 15.336,-13.784C13.322,-13.834 11.28,-13.79 9.293,-13.452C8.292,-13.271 6.878,-12.984 5.85,-12.873L5.324,-12.797L5.596,-13.27C6.373,-14.375 7.143,-15.538 5.326,-15.979C4.987,-16.054 4.879,-16.049 4.708,-15.773C4.383,-15.21 3.591,-13.725 3.261,-13.13C3.013,-12.503 2.391,-11.825 1.666,-11.787C-1.609,-11.194 -4.981,-9.945 -8.349,-10.582C-8.664,-10.704 -8.936,-10.631 -8.944,-10.281C-8.342,-7.485 -5.32,-7.918 -3.147,-8.37C-2.489,-8.511 -1.837,-8.679 -1.182,-8.838C-0.544,-8.954 0.161,-9.335 0.812,-9.091C0.818,-8.55 0.619,-7.891 0,-7.812M0,-7.812C0.639,-7.885 0.78,-8.611 0.795,-9.079C0.128,-9.274 -0.517,-8.918 -1.168,-8.783C-3.12,-8.278 -5.118,-7.656 -7.161,-8.041C-7.86,-8.178 -8.412,-8.713 -8.744,-9.306C-8.97,-9.715 -9.439,-10.426 -8.863,-10.794C-8.666,-10.906 -8.438,-10.824 -8.299,-10.792C-5.002,-10.22 -1.637,-11.517 1.588,-12.153C2.309,-12.247 2.61,-12.692 2.9,-13.316L3.841,-15.108C4.188,-15.733 4.494,-16.76 5.434,-16.435C6.799,-16.199 7.398,-15.006 6.577,-13.849L6.031,-12.989L5.777,-13.386C6.828,-13.499 8.18,-13.799 9.201,-13.993C11.216,-14.353 13.277,-14.421 15.319,-14.386C15.622,-14.379 15.825,-14.476 16.11,-14.561C17.848,-14.754 19.625,-12.781 18.439,-11.236C16.498,-8.112 14.279,-4.747 12.034,-1.822C11.916,-1.666 11.327,-1.094 11.266,-0.9L11.072,-0.5L10.732,-1.06C10.937,-1.068 11.14,-1.02 11.338,-1.087C11.755,-1.197 12.952,-1.507 13.389,-1.621C16.098,-2.426 18.965,-2.733 21.743,-3.072L24.516,-3.416C25.282,-3.544 25.981,-4.189 26.758,-4.728L29.037,-6.38C29.578,-6.879 30.693,-7.293 30.94,-7.989L30.963,-7.679C30.555,-8.556 30.05,-9.33 29.138,-9.61C28.798,-9.667 28.256,-9.885 28.015,-10.229C27.691,-10.604 27.677,-11.172 27.612,-11.351C27.543,-11.651 27.346,-11.858 27.258,-12.429C27.221,-13.064 27.759,-13.55 28.351,-13.574C30.714,-13.386 31.992,-10.978 33.371,-9.54C34.728,-10.479 37.081,-12.046 38.096,-13.228C39.077,-14.204 40.658,-13.192 41.145,-12.154C41.491,-11.394 41.216,-10.524 40.654,-9.932C40.382,-9.638 39.943,-9.544 39.595,-9.38C39.066,-9.167 37.637,-7.988 37.12,-7.652C36.777,-7.412 35.338,-6.347 35.048,-6.135C34.996,-6.097 34.974,-6.057 35.006,-6.109C35.041,-6.18 35.021,-6.228 35.032,-6.175C35.094,-5.953 35.248,-5.569 35.362,-5.27C36.339,-2.736 37.699,-0.288 39.079,2.029C39.981,3.319 41.022,4.639 42.398,5.388C43.58,6.272 43.48,8.942 41.739,8.946C41.403,8.948 40.944,8.843 40.695,8.574C39.144,6.549 37.218,4.793 36.041,2.48C35.136,0.749 33.588,-2.318 32.826,-4.072C32.662,-4.41 32.668,-4.525 32.346,-4.844L32.956,-4.758C31.607,-3.896 30.236,-2.811 28.955,-1.84C27.979,-1.111 27.215,1.002 25.698,0.326C24.966,-0.143 24.148,0.02 23.29,0.087C19.538,0.501 15.782,0.985 12.263,2.467C11.415,2.752 8.957,3.857 8.151,3.979C6.834,4.101 6.489,2.567 6.062,1.604C5.658,0.008 7.248,-1.275 8.092,-2.419C10.37,-4.852 12.321,-7.517 14.008,-10.377C14.297,-10.817 14.408,-11.125 14.568,-11.617C14.569,-11.617 14.877,-11.162 14.877,-11.162C13.822,-11.208 12.895,-11.309 11.879,-11.149C9.529,-10.974 6.715,-10.569 4.493,-9.819C3.946,-9.695 3.742,-9.525 3.478,-9.049C1.327,-5.607 -0.698,-2.08 -3.186,1.151C-4.398,2.786 -5.749,4.316 -7.006,5.896C-7.601,6.651 -8.598,8.178 -9.521,6.846C-9.799,6.191 -10.563,5.231 -9.848,4.622C-8.309,2.937 -6.652,1.369 -5.271,-0.451C-4.384,-1.602 -3.41,-2.923 -2.549,-4.109C-2.285,-4.517 -1.97,-5.02 -1.422,-5.086C-0.946,-5.883 0.109,-6.688 0,-7.812" style="fill-rule:nonzero;"/>
        </g>
        <g transform="matrix(17.2004,0,0,17.2004,1013.09,104.346)">
            <path d="M0,7.588C1.117,7.534 2.282,7.272 3.411,6.833C3.772,6.692 4.078,6.446 4.244,6.028C4.403,5.625 4.619,5.249 4.783,4.848C5.469,3.169 5.47,2.78 4.168,1.265C4.152,1.246 4.133,1.23 4.115,1.212C3.624,0.714 3.557,0.692 3.06,1.184C2.717,1.523 2.358,1.589 1.938,1.453C1.265,1.234 0.611,1.344 -0.026,1.607C-0.405,1.763 -0.792,1.919 -1.139,2.142C-2.199,2.822 -3.147,3.627 -3.704,4.878C-4.168,5.918 -3.917,6.695 -2.908,7.097C-2.528,7.249 -2.131,7.372 -1.732,7.434C-1.188,7.52 -0.636,7.535 0,7.588M-0.148,10.433C-0.886,10.359 -1.63,10.326 -2.361,10.201C-3.528,10.002 -4.452,9.327 -5.128,8.289C-5.329,7.981 -5.449,7.595 -5.545,7.226C-6.343,4.178 -5.7,2.243 -3.319,0.301C-2.919,-0.025 -2.49,-0.315 -2.054,-0.582C-1.772,-0.756 -1.624,-0.967 -1.629,-1.322C-1.632,-1.501 -1.587,-1.681 -1.563,-1.861C-1.502,-2.323 -1.257,-2.627 -0.846,-2.729C-0.546,-2.804 -0.233,-2.841 0.075,-2.841C1.736,-2.845 3.231,-2.288 4.539,-1.183C4.856,-0.916 5.125,-0.567 5.368,-0.216C5.781,0.382 6.188,0.991 6.541,1.632C7.128,2.697 7.169,3.843 6.869,5.022C6.678,5.772 6.483,6.522 6.335,7.282C6.147,8.255 5.617,8.885 4.809,9.303C3.467,9.998 2.042,10.284 0.573,10.377C0.334,10.392 0.094,10.382 -0.146,10.384C-0.146,10.4 -0.147,10.417 -0.148,10.433" style="fill-rule:nonzero;"/>
        </g>
        <g transform="matrix(17.2004,0,0,17.2004,1010.53,40.7902)">
            <path d="M0,14.128C2.071,13.77 5.761,13.507 6.187,10.858L6.714,8.308C6.944,7.053 6.658,5.924 5.893,4.923C5.497,4.359 4.949,3.369 4.443,2.94C3.105,1.762 1.225,1.128 -0.542,1.438C-0.694,1.464 -0.753,1.51 -0.816,1.584C-0.943,1.744 -0.957,2.037 -1.013,2.603C-1.044,2.945 -1.31,3.307 -1.557,3.457L-2.102,3.825C-3.51,4.707 -4.768,5.932 -5.198,7.476C-5.738,9.775 -5.082,12.921 -2.548,13.687C-1.845,13.894 -0.734,13.979 0,14.128M0,14.128C-1.689,14.089 -3.748,14.075 -4.889,12.527C-5.989,11.088 -6.235,9.069 -5.941,7.294C-5.503,5.21 -3.784,3.791 -2.109,2.673C-1.995,2.583 -1.986,2.562 -1.968,2.467C-1.908,2.191 -1.994,1.541 -1.587,0.985C-1.388,0.712 -1.042,0.529 -0.768,0.483C1.749,0 4.606,1.151 5.978,3.323L6.676,4.455C7.5,5.558 7.834,7.132 7.47,8.459L6.809,10.979C6.209,13.946 2.281,14.072 0,14.128" style="fill-rule:nonzero;"/>
        </g>
        <g transform="matrix(17.2004,0,0,17.2004,1013.09,111.088)">
            <path d="M0,7.196C-1.392,7.018 -3.846,7.271 -4.086,5.385C-3.956,2.848 -0.531,-0.051 2.007,0.56C2.485,0.688 2.453,0.69 2.955,0.232C3.142,0.074 3.373,-0.075 3.687,-0.027C4.245,0.155 4.234,0.328 4.557,0.647C4.986,1.22 5.445,1.737 5.559,2.562C5.614,3.231 5.346,3.751 5.138,4.237C4.737,4.935 4.509,5.797 3.87,6.311C2.673,6.896 1.314,7.102 0,7.196M0,7.196C1.054,7.134 2.094,6.891 3.067,6.494C3.577,6.328 3.988,6.019 4.118,5.535C4.64,4.098 5.532,2.731 4.138,1.508C3.988,1.348 3.805,1.121 3.63,0.983C3.557,0.905 3.434,0.86 3.546,0.904C3.608,0.917 3.668,0.894 3.659,0.897C3.444,1.054 3.265,1.358 2.811,1.53C1.909,1.825 1.329,1.183 0.454,1.552C-0.925,2.023 -2.343,2.822 -3.187,4.042C-3.781,4.817 -4.149,6.029 -3.061,6.56C-2.264,7.045 -0.912,7.105 0,7.196" style="fill-rule:nonzero;"/>
        </g>
    </g>
</svg>
